<svg width="516.625" height="516.633" viewBox="0 0 136.691 136.693" xmlns="http://www.w3.org/2000/svg"><defs><linearGradient id="prefix__a"><stop offset="0" stop-color="#20593b"/><stop offset="1" stop-color="#359c76"/></linearGradient></defs><path d="M5 0a5.002 5.002 0 00-3.861 1.816A5.007 5.007 0 000 5V60.04a5.007 5.007 0 00.391 1.95A4.984 4.984 0 005 65.04h55.039c2.77 0 5-2.23 5-5V5c0-2.77-2.23-5-5-5zm4.749 17.602h45.54c2.77 0 5 2.23 5 5v31.823c0 2.77-2.23 5-5 5H9.749v-.001c-2.77 0-5-2.23-5-5V22.602c0-2.77 2.23-5 5-5zM76.652 0a5.002 5.002 0 00-3.86 1.816A5.007 5.007 0 0071.652 5V60.04a5.007 5.007 0 00.392 1.95 4.984 4.984 0 004.608 3.05h55.039c2.77 0 5-2.23 5-5V5c0-2.77-2.23-5-5-5zm4.75 17.602h45.54c2.77 0 5 2.23 5 5v31.823c0 2.77-2.23 5-5 5h-45.54v-.001c-2.77 0-5-2.23-5-5V22.602c0-2.77 2.23-5 5-5zM5 71.654a5.002 5.002 0 00-3.861 1.816A5.007 5.007 0 000 76.654v55.039a5.007 5.007 0 00.391 1.95A4.984 4.984 0 005 136.693h55.039c2.77 0 5-2.23 5-5V76.654c0-2.77-2.23-5-5-5zm4.749 17.602h45.54c2.77 0 5 2.23 5 5v31.823c0 2.77-2.23 5-5 5H9.749v-.001c-2.77 0-5-2.23-5-5V94.256c0-2.77 2.23-5 5-5z" fill="#307b5e" fill-rule="evenodd" paint-order="markers fill stroke"/><path d="M76.652 71.654a5.002 5.002 0 00-3.86 1.816 5.007 5.007 0 00-1.14 3.184v55.039a5.007 5.007 0 00.392 1.95 4.984 4.984 0 004.608 3.05h55.039c2.77 0 5-2.23 5-5V76.654c0-2.77-2.23-5-5-5zm4.75 17.602h45.54c2.77 0 5 2.23 5 5v31.823c0 2.77-2.23 5-5 5h-45.54v-.001c-2.77 0-5-2.23-5-5V94.256c0-2.77 2.23-5 5-5z" fill="#293631" fill-rule="evenodd" paint-order="markers fill stroke"/></svg>